<svg width="138" height="138" viewBox="0 0 138 138" fill="none" xmlns="http://www.w3.org/2000/svg">
<path d="M11.5 120.75C11.5 103.5 22.1375 89.93 40.71 86.25C54.625 83.49 69 74.75 74.75 69M63.25 115C53.1533 115.031 43.414 111.265 35.9635 104.451C28.513 97.6369 23.8957 88.2714 23.0272 78.2121C22.1588 68.1528 25.1027 58.1346 31.2751 50.1443C37.4475 42.154 46.3975 36.7753 56.35 35.075C89.125 28.75 97.75 25.76 109.25 11.5C115 23 120.75 35.535 120.75 57.5C120.75 89.125 93.265 115 63.25 115Z" stroke="black" stroke-width="2" stroke-linecap="round" stroke-linejoin="round"/>
</svg>
