<svg xmlns="http://www.w3.org/2000/svg" xmlns:xlink="http://www.w3.org/1999/xlink" width="1080" zoomAndPan="magnify" viewBox="0 0 810 809.999993" height="1080" preserveAspectRatio="xMidYMid meet" version="1.0"><defs><clipPath id="dac7fe733f"><path d="M 189 138 L 694 138 L 694 579 L 189 579 Z M 189 138 " clip-rule="nonzero"/></clipPath><clipPath id="2c8bc68fba"><path d="M 693.996094 578.308594 L 288.34375 466.800781 L 410.390625 138.707031 L 189.078125 519.992188 Z M 693.996094 578.308594 " clip-rule="nonzero"/></clipPath><clipPath id="165d66e820"><path d="M 91 138 L 698 138 L 698 579 L 91 579 Z M 91 138 " clip-rule="nonzero"/></clipPath><clipPath id="7d597774de"><path d="M 193.054688 519.992188 L 414.363281 138.707031 L 91.519531 574.335938 L 697.972656 578.308594 Z M 193.054688 519.992188 " clip-rule="nonzero"/></clipPath><clipPath id="cf047334ec"><path d="M 326.296875 138 L 710 138 L 710 566 L 326.296875 566 Z M 326.296875 138 " clip-rule="nonzero"/></clipPath><clipPath id="97962b6e1c"><path d="M 414.363281 138.707031 L 615.523438 505.640625 L 326.46875 452.488281 L 709.144531 565.828125 Z M 414.363281 138.707031 " clip-rule="nonzero"/></clipPath></defs><rect x="-81" width="972" fill="#ffffff" y="-80.999999" height="971.999992" fill-opacity="1"/><rect x="-81" width="972" fill="#fefeff" y="-80.999999" height="971.999992" fill-opacity="1"/><g clip-path="url(#dac7fe733f)"><g clip-path="url(#2c8bc68fba)"><path fill="#4bc4f2" d="M 71.644531 118.832031 L 728.875 118.832031 L 728.875 598.179688 L 71.644531 598.179688 Z M 71.644531 118.832031 " fill-opacity="1" fill-rule="nonzero"/></g></g><g clip-path="url(#165d66e820)"><g clip-path="url(#7d597774de)"><path fill="#1e4b8f" d="M 71.644531 118.832031 L 728.875 118.832031 L 728.875 598.179688 L 71.644531 598.179688 Z M 71.644531 118.832031 " fill-opacity="1" fill-rule="nonzero"/></g></g><g clip-path="url(#cf047334ec)"><g clip-path="url(#97962b6e1c)"><path fill="#1e4b8f" d="M 71.644531 118.832031 L 728.875 118.832031 L 728.875 598.179688 L 71.644531 598.179688 Z M 71.644531 118.832031 " fill-opacity="1" fill-rule="nonzero"/></g></g></svg>