<svg width="280" height="344" viewBox="0 0 280 344" fill="none" xmlns="http://www.w3.org/2000/svg">
<path d="M13.5588 258.014L8.70928 269H0L21.3773 220.604H30.0866L51.365 269H42.6557L37.8062 258.014H13.5588ZM34.5402 250.394L25.732 230.501L16.9237 250.394H34.5402ZM58.1049 269V220.604H66.3193V261.28H88.3894V269H58.1049ZM131.338 220.604V228.225H105.507V241.091H128.666V248.315H105.507V261.28H132.13V269H97.2924V220.604H131.338ZM170.78 251.384L183.448 269H173.056L161.477 252.67H150.788V269H142.574V220.604H160.586C167.91 220.604 173.155 221.858 176.322 224.365C179.555 226.806 181.172 230.798 181.172 236.34C181.172 244.324 177.708 249.338 170.78 251.384ZM160.883 245.346C165.436 245.346 168.57 244.654 170.285 243.268C172 241.882 172.858 239.54 172.858 236.241C172.858 233.074 172 230.93 170.285 229.808C168.57 228.621 165.501 228.027 161.081 228.027H150.788V245.346H160.883ZM211.32 228.027V269H203.106V228.027H188.459V220.604H225.968V228.027H211.32ZM241.746 258.014L236.897 269H228.188L249.565 220.604H258.274L279.552 269H270.843L265.994 258.014H241.746ZM262.728 250.394L253.919 230.501L245.111 250.394H262.728Z" fill="#031E03"/>
<path d="M82.375 144.25C78.4583 144.25 74.7917 143.625 71.375 142.375C68.0417 141.125 65.0833 139.375 62.5 137.125C60 134.875 58 132.208 56.5 129.125C55 126.125 54.2083 122.833 54.125 119.25C54.0417 114.583 54.7917 110.417 56.375 106.75C57.875 103.083 59.875 99.8333 62.375 97C64.9583 94.1667 67.875 91.7917 71.125 89.875C74.375 87.875 77.7083 86.25 81.125 85C79.2917 84 77.5417 82.7917 75.875 81.375C74.2917 79.9583 72.875 78.375 71.625 76.625C70.375 74.875 69.375 73.0417 68.625 71.125C67.875 69.2083 67.5 67.2917 67.5 65.375C67.3333 59.5417 68.5 54.25 71 49.5C73.5833 44.75 76.875 40.7083 80.875 37.375C84.875 33.9583 89.3333 31.3333 94.25 29.5C99.25 27.6667 104.125 26.75 108.875 26.75C112.042 26.75 114.75 27.2917 117 28.375C119.25 29.375 121.083 30.6667 122.5 32.25C123.917 33.75 124.958 35.4167 125.625 37.25C126.375 39 126.792 40.625 126.875 42.125C126.958 44.875 126.583 47.6667 125.75 50.5C125 53.3333 124 55.9167 122.75 58.25C121.583 60.5 120.25 62.375 118.75 63.875C117.25 65.2917 115.792 66 114.375 66C113.292 66 112.167 65.8333 111 65.5C110 65.25 108.833 64.8333 107.5 64.25C106.167 63.6667 104.833 62.7917 103.5 61.625C105.667 60.7917 107.583 59.625 109.25 58.125C110.917 56.5417 112.292 54.7917 113.375 52.875C114.542 50.9583 115.375 49 115.875 47C116.458 44.9167 116.75 42.9583 116.75 41.125C116.667 38.4583 116.042 36.4167 114.875 35C113.708 33.5 111.833 32.75 109.25 32.75C105.75 32.75 102.25 33.625 98.75 35.375C95.25 37.0417 92.125 39.4167 89.375 42.5C86.7083 45.5 84.5833 49.125 83 53.375C81.5 57.5417 81 62.0833 81.5 67C81.9167 70.75 83.0417 73.9167 84.875 76.5C86.7917 79.0833 88.5833 81.0833 90.25 82.5C91.5833 82.3333 92.8333 82.2083 94 82.125C95.1667 81.9583 96.25 81.875 97.25 81.875C98.6667 81.875 100.083 82.125 101.5 82.625C102.917 83.125 103.625 83.8333 103.625 84.75C103.625 85.4167 103.458 86.1667 103.125 87C102.875 87.8333 102.417 88.625 101.75 89.375C101.083 90.125 100.292 90.75 99.375 91.25C98.4583 91.75 97.375 92 96.125 92C95.125 92 93.9167 91.75 92.5 91.25C91.0833 90.75 89.6667 90.125 88.25 89.375C85.0833 90.0417 82.2083 91.25 79.625 93C77.0417 94.6667 74.8333 96.6667 73 99C71.25 101.333 69.875 103.875 68.875 106.625C67.875 109.375 67.4167 112.042 67.5 114.625C67.5833 117.042 67.9583 119.458 68.625 121.875C69.2917 124.375 70.3333 126.583 71.75 128.5C73.1667 130.417 75 131.958 77.25 133.125C79.5833 134.375 82.375 135 85.625 135C88.0417 135 90.3333 134.458 92.5 133.375C94.75 132.375 96.8333 131.083 98.75 129.5C100.667 127.917 102.417 126.167 104 124.25C105.583 122.333 106.958 120.458 108.125 118.625C109.292 116.792 110.25 115.125 111 113.625C111.833 112.125 112.417 111.042 112.75 110.375C113 109.875 113.333 109.5 113.75 109.25C114.25 109 114.708 108.958 115.125 109.125C115.625 109.208 116 109.5 116.25 110C116.5 110.5 116.5 111.25 116.25 112.25C115.583 115.25 114.333 118.583 112.5 122.25C110.667 126 108.292 129.5 105.375 132.75C102.542 136 99.1667 138.708 95.25 140.875C91.4167 143.125 87.125 144.25 82.375 144.25ZM146.25 116.75C148.833 116.75 151.667 115.75 154.75 113.75C157.917 111.667 160.958 109.25 163.875 106.5C166.875 103.75 169.583 100.958 172 98.125C174.5 95.2083 176.375 92.875 177.625 91.125C178.375 90.0417 179.083 89.4167 179.75 89.25C180.417 89 180.917 89.0833 181.25 89.5C181.583 89.9167 181.708 90.5833 181.625 91.5C181.542 92.3333 181.167 93.2917 180.5 94.375C179.917 95.375 178.917 96.8333 177.5 98.75C176.167 100.583 174.542 102.625 172.625 104.875C170.792 107.042 168.667 109.292 166.25 111.625C163.917 113.875 161.458 115.958 158.875 117.875C156.292 119.708 153.625 121.208 150.875 122.375C148.125 123.625 145.417 124.25 142.75 124.25C139.083 124.25 136 123.542 133.5 122.125C131.083 120.792 129.125 119.042 127.625 116.875C126.208 114.708 125.208 112.333 124.625 109.75C124.042 107.083 123.75 104.458 123.75 101.875C123.75 99.2917 124.333 96.0833 125.5 92.25C126.667 88.4167 128.375 84.75 130.625 81.25C132.958 77.6667 135.875 74.625 139.375 72.125C142.875 69.5417 147 68.25 151.75 68.25C154.417 68.25 156.667 69.1667 158.5 71C160.417 72.8333 161.333 75.3333 161.25 78.5C161.25 80 161 81.5 160.5 83C160 84.4167 159.333 85.7083 158.5 86.875C157.667 87.9583 156.667 88.8333 155.5 89.5C154.417 90.1667 153.208 90.5 151.875 90.5C150.792 90.5 149.958 90.125 149.375 89.375C148.875 88.5417 148.542 87.625 148.375 86.625C148.292 85.5417 148.292 84.5 148.375 83.5C148.542 82.5 148.708 81.8333 148.875 81.5C149.292 80.9167 149.75 80.5 150.25 80.25C150.75 80 151.333 79.7083 152 79.375C152.5 79.125 152.875 78.75 153.125 78.25C153.458 77.75 153.625 77.2083 153.625 76.625C153.625 76.0417 153.458 75.5417 153.125 75.125C152.792 74.7083 152.25 74.5 151.5 74.5C150.75 74.5 149.375 75.125 147.375 76.375C145.458 77.5417 143.458 79.3333 141.375 81.75C139.375 84.0833 137.583 87.0417 136 90.625C134.417 94.2083 133.583 98.375 133.5 103.125C133.417 105.875 133.792 108.125 134.625 109.875C135.458 111.625 136.5 113 137.75 114C139 115 140.375 115.708 141.875 116.125C143.375 116.542 144.833 116.75 146.25 116.75ZM208.5 101.125C207.667 104.292 206.542 107.25 205.125 110C203.708 112.75 202 115.125 200 117.125C198.083 119.125 195.875 120.667 193.375 121.75C190.958 122.917 188.292 123.5 185.375 123.5C181.958 123.5 179.25 122.75 177.25 121.25C175.333 119.833 173.875 118.042 172.875 115.875C171.958 113.708 171.417 111.333 171.25 108.75C171 106.167 170.875 103.75 170.875 101.5C170.875 99.9167 171.083 98.1667 171.5 96.25C171.833 94.3333 172.333 92.375 173 90.375C173.667 88.375 174.5 86.375 175.5 84.375C176.583 82.375 177.833 80.5417 179.25 78.875C179.75 77.4583 180.5 76.2083 181.5 75.125C182.583 74.0417 183.792 73.1667 185.125 72.5C186.542 71.75 188.042 71.2083 189.625 70.875C191.208 70.4583 192.75 70.25 194.25 70.25C194.5 70.25 194.708 70.2917 194.875 70.375C195.125 70.4583 195.375 70.5417 195.625 70.625C196.708 70.7083 198.042 71.125 199.625 71.875C201.292 72.625 202.875 73.75 204.375 75.25C205.958 76.75 207.292 78.6667 208.375 81C209.458 83.25 210 86 210 89.25C210 89.9167 209.958 90.75 209.875 91.75C209.792 92.6667 209.708 93.4583 209.625 94.125C211.542 93.375 213.542 92.4583 215.625 91.375C217.708 90.2917 219.708 89.1667 221.625 88C223.625 86.75 225.458 85.5 227.125 84.25C228.792 83 230.125 81.875 231.125 80.875C231.958 80.125 232.667 79.7083 233.25 79.625C233.833 79.5417 234.25 79.7083 234.5 80.125C234.75 80.5417 234.792 81.125 234.625 81.875C234.458 82.625 234 83.4583 233.25 84.375C232.833 84.875 231.75 85.875 230 87.375C228.333 88.875 226.333 90.5 224 92.25C221.667 94 219.125 95.7083 216.375 97.375C213.625 99.0417 211 100.292 208.5 101.125ZM187.375 82.125C187.125 82.875 187 83.6667 187 84.5C187 85.8333 187.083 87.25 187.25 88.75C187.417 90.1667 187.833 91.4583 188.5 92.625C189.167 93.7917 190.208 94.7917 191.625 95.625C193.125 96.375 195.167 96.75 197.75 96.75C198.167 96.75 198.583 96.75 199 96.75C199.417 96.6667 199.833 96.5833 200.25 96.5C200.5 95.4167 200.708 94.4583 200.875 93.625C201.125 92.7083 201.25 91.9167 201.25 91.25C201.417 89.6667 201.417 88.0417 201.25 86.375C201.083 84.7083 200.75 83.2083 200.25 81.875C199.833 80.4583 199.25 79.3333 198.5 78.5C197.833 77.5833 197 77.125 196 77.125C194.417 77.125 192.875 77.5833 191.375 78.5C189.958 79.3333 188.625 80.5417 187.375 82.125ZM179.375 104.125C179.375 105.625 179.458 107.125 179.625 108.625C179.792 110.042 180.125 111.333 180.625 112.5C181.125 113.583 181.792 114.5 182.625 115.25C183.458 115.917 184.542 116.25 185.875 116.25C187.375 116.25 188.75 115.917 190 115.25C191.25 114.5 192.375 113.583 193.375 112.5C194.375 111.333 195.25 110.042 196 108.625C196.833 107.125 197.542 105.583 198.125 104C197.542 104.083 196.958 104.167 196.375 104.25C195.875 104.25 195.292 104.25 194.625 104.25C191.458 104.25 188.708 103.333 186.375 101.5C184.125 99.5833 182.375 97.1667 181.125 94.25C180.625 96 180.208 97.7083 179.875 99.375C179.542 101.042 179.375 102.625 179.375 104.125Z" fill="#031E03"/>
<path d="M82.5 225.75C82.5 208.5 93.1375 194.93 111.71 191.25C125.625 188.49 140 179.75 145.75 174M134.25 220C124.153 220.031 114.414 216.265 106.963 209.451C99.513 202.637 94.8957 193.271 94.0272 183.212C93.1588 173.153 96.1027 163.135 102.275 155.144C108.447 147.154 117.397 141.775 127.35 140.075C160.125 133.75 168.75 130.76 180.25 116.5C186 128 191.75 140.535 191.75 162.5C191.75 194.125 164.265 220 134.25 220Z" stroke="black" stroke-width="2" stroke-linecap="round" stroke-linejoin="round"/>
</svg>
